<?xml version="1.0" encoding="utf-8"?>
<!-- Generator: Adobe Illustrator 16.0.0, SVG Export Plug-In . SVG Version: 6.00 Build 0)  -->
<!DOCTYPE svg PUBLIC "-//W3C//DTD SVG 1.1//EN" "http://www.w3.org/Graphics/SVG/1.1/DTD/svg11.dtd">
<svg version="1.1" xmlns="http://www.w3.org/2000/svg" xmlns:xlink="http://www.w3.org/1999/xlink" x="0px" y="0px"
	 width="881.037px" height="282.09px" viewBox="0 0 881.037 282.09" enable-background="new 0 0 881.037 282.09"
	 xml:space="preserve">
<g id="Layer_7">
	<polygon fill="#0047AB" points="-1888.032,-48.693 -1888.085,-68.748 -1905.463,-78.756 -1922.79,-68.712 -1922.736,-48.658 
		-1905.358,-38.647 	"/>
	<polyline fill="#0047AB" points="-1840.924,-96.092 -1905.472,-133.166 -1969.916,-95.801 -1969.813,-21.364 -1942.646,-5.76 
		-1942.7,-60.592 -1942.761,-80.141 -1905.627,-101.669 -1868.363,-80.183 -1868.231,-37.168 -1905.363,-15.64 -1923.144,-25.892 
		-1923.161,5.252 -1905.265,15.709 -1840.821,-21.654 	"/>
	<polygon fill="#62008A" points="-1747.032,-45.693 -1747.085,-65.748 -1764.463,-75.756 -1781.79,-65.712 -1781.736,-45.658 
		-1764.358,-35.647 	"/>
	<polyline fill="#62008A" points="-1699.924,-93.092 -1764.472,-130.166 -1828.916,-92.801 -1828.813,-18.364 -1801.646,-2.76 
		-1801.7,-57.592 -1801.761,-77.141 -1764.627,-98.669 -1727.363,-77.183 -1727.231,-34.168 -1764.363,-12.64 -1782.144,-22.892 
		-1782.161,8.252 -1764.265,18.709 -1699.821,-18.654 	"/>
	<g>
		<path fill="#0047AB" d="M-1892.763,109.31c0.952-0.551,1.729-1.903,1.726-3.003l-0.043-16.055c-0.003-1.1-0.785-2.449-1.738-2.998
			l-13.911-8.012c-0.953-0.549-2.512-0.547-3.464,0.005l-13.866,8.038c-0.952,0.552-1.729,1.903-1.725,3.003l0.043,16.054
			c0.002,1.1,0.785,2.449,1.738,2.999l13.911,8.014c0.953,0.549,2.512,0.547,3.464-0.005L-1892.763,109.31z"/>
	</g>
	<g>
		<path fill="#0047AB" d="M-1843.824,135.346c0.002,1.1-0.775,2.451-1.728,3.003l-60.982,35.357
			c-0.952,0.552-2.508,0.549-3.457-0.006l-14.443-8.438c-0.949-0.555-1.727-1.909-1.726-3.009l0.016-27.145
			c0.001-1.1,0.78-1.551,1.733-1.001l14.315,8.254c0.952,0.55,2.511,0.548,3.463-0.004l33.671-19.522
			c0.952-0.552,1.728-1.903,1.725-3.003l-0.12-39.015c-0.003-1.1-0.786-2.45-1.738-2.999l-33.799-19.488
			c-0.952-0.549-2.511-0.548-3.463,0.004l-33.673,19.523c-0.952,0.552-1.728,1.903-1.725,3.003l0.049,15.549
			c0.003,1.1,0.007,2.9,0.008,4l0.05,50.831c0.001,1.1-0.778,1.552-1.732,1.004l-23.698-13.611
			c-0.954-0.548-1.735-1.896-1.737-2.996l-0.097-70.437c-0.002-1.1,0.775-2.452,1.728-3.003l60.983-35.358
			c0.952-0.552,2.511-0.555,3.465-0.007l61.079,35.082c0.954,0.548,1.735,1.896,1.737,2.996L-1843.824,135.346z"/>
	</g>
	<g>
		<path fill="#62008A" d="M-1748.763,111.31c0.952-0.551,1.729-1.903,1.726-3.003l-0.043-16.055c-0.003-1.1-0.785-2.449-1.738-2.998
			l-13.911-8.012c-0.953-0.549-2.512-0.547-3.464,0.005l-13.866,8.038c-0.952,0.552-1.729,1.903-1.725,3.003l0.043,16.054
			c0.002,1.1,0.785,2.449,1.738,2.999l13.911,8.014c0.953,0.549,2.512,0.547,3.464-0.005L-1748.763,111.31z"/>
	</g>
	<g>
		<path fill="#62008A" d="M-1699.824,135.346c0.002,1.1-0.775,2.451-1.728,3.003l-60.982,35.357
			c-0.952,0.552-2.508,0.549-3.457-0.006l-14.443-8.438c-0.949-0.555-1.727-1.909-1.726-3.009l0.016-27.145
			c0.001-1.1,0.78-1.551,1.733-1.001l14.315,8.254c0.952,0.55,2.511,0.548,3.463-0.004l33.671-19.522
			c0.952-0.552,1.728-1.903,1.725-3.003l-0.12-39.015c-0.003-1.1-0.786-2.45-1.738-2.999l-33.799-19.488
			c-0.952-0.549-2.511-0.548-3.463,0.004l-33.673,19.523c-0.952,0.552-1.728,1.903-1.725,3.003l0.049,15.549
			c0.003,1.1,0.007,2.9,0.008,4l0.05,50.831c0.001,1.1-0.778,1.552-1.732,1.004l-23.698-13.611
			c-0.954-0.548-1.735-1.896-1.737-2.996l-0.097-70.437c-0.002-1.1,0.775-2.452,1.728-3.003l60.983-35.358
			c0.952-0.552,2.511-0.555,3.465-0.007l61.079,35.082c0.954,0.548,1.735,1.896,1.737,2.996L-1699.824,135.346z"/>
	</g>
</g>
<g id="Layer_10">
	<g>
		<path fill="#0047AB" d="M-533.337,136.593c0.952-0.552,1.729-1.903,1.726-3.003l-0.089-33.698c-0.003-1.1-0.785-2.449-1.738-2.998
			l-29.2-16.818c-0.953-0.549-2.512-0.547-3.464,0.005l-29.11,16.874c-0.952,0.552-1.728,1.903-1.726,3.003l0.09,33.699
			c0.004,1.1,0.786,2.449,1.739,2.998l29.2,16.82c0.953,0.549,2.512,0.547,3.464-0.005L-533.337,136.593z"/>
	</g>
	<g>
		<path fill="#0047AB" d="M-563.999,260.411l-31.915-18.646c-0.949-0.555-1.726-1.909-1.726-3.009l0.03-54.546
			c0-1.1,0.78-1.551,1.733-1.001l29.959,17.273c0.953,0.55,2.511,0.548,3.463-0.004l66.339-38.463
			c0.952-0.552,1.728-1.903,1.725-3.003l-0.235-76.858c-0.003-1.1-0.785-2.45-1.738-2.999l-66.584-38.392
			c-0.953-0.549-2.511-0.548-3.463,0.004l-66.343,38.463c-0.952,0.552-1.728,1.903-1.725,3.003l0.103,32.748
			c0.003,1.1,0.007,2.9,0.008,4l0.097,99.07c0.001,1.1-0.778,1.552-1.732,1.004l-47.6-27.339c-0.954-0.548-1.735-1.896-1.737-2.996
			l-0.187-135.925c-0.002-1.1,0.775-2.452,1.728-3.003l117.681-68.231c0.952-0.551,2.511-0.555,3.465-0.007l117.868,67.697
			c0.954,0.548,1.735,1.896,1.737,2.996l0.187,135.928c0.002,1.1-0.775,2.451-1.728,3.003L-563.999,260.411"/>
	</g>
</g>
<g id="Layer_8">
	<g>
		<polygon fill="#62008A" points="-1572.121,-42.646 -1572.171,-61.76 -1588.733,-71.298 -1605.247,-61.726 -1605.196,-42.612 
			-1588.634,-33.072 		"/>
		<polygon fill="#62008A" points="-1588.742,-123.154 -1650.161,-87.543 -1650.063,-16.601 -1624.172,-1.729 -1624.223,-53.986 
			-1624.28,-72.618 -1588.891,-93.136 -1553.376,-72.658 -1553.249,-31.662 -1588.639,-11.145 -1605.584,-20.915 -1605.601,8.768 
			-1588.545,18.732 -1527.126,-16.877 -1527.224,-87.82 		"/>
	</g>
	<path fill="#62008A" d="M-1483.26-92.997l-35.39,20.469l-0.137,40.885l35.255,20.414l35.391-20.471l0.136-40.883L-1483.26-92.997z
		 M-1467.095-41.989l-16.953,9.332l-16.591-10.016l0.359-19.347l16.952-9.332l16.592,10.015L-1467.095-41.989z"/>
	<path fill="#62008A" d="M-1255.031-92.997l-35.391,20.469l-0.136,40.885l35.254,20.414l35.391-20.471l0.137-40.883
		L-1255.031-92.997z M-1238.866-41.989l-16.953,9.332l-16.592-10.016l0.36-19.347l16.952-9.332l16.591,10.015L-1238.866-41.989z"/>
	<polygon fill="#62008A" points="-1158.956,-79.81 -1177.687,-68.563 -1177.618,-49.35 -1194.999,-39.884 -1194.58,-18.487 
		-1159.092,-38.927 	"/>
	<polygon fill="#62008A" points="-1194.114,-18.487 -1213.114,-24.811 -1213.114,-71.48 -1194.114,-62.598 	"/>
	<polygon fill="#62008A" points="-1441.483,-123.354 -1441.459,-72.627 -1441.65,-31.693 -1406.424,-11.255 -1371.048,-31.713 
		-1390.008,-41.996 -1406.382,-33.075 -1423.114,-42.977 -1423.114,-129.538 	"/>
	<polygon fill="#62008A" points="-1332.247,7.181 -1332.383,28.515 -1296.5,7.595 -1296.978,-36.025 -1296.978,-36.025 
		-1296.856,-72.583 -1316.021,-61.092 -1315.946,-41.989 -1332.899,-32.658 -1349.49,-42.674 -1349.495,-62.229 -1367.501,-72.528 
		-1367.638,-31.643 -1332.383,-11.229 -1316.019,-20.695 -1315.946,-2.245 	"/>
	<g>
		<g>
			<g>
				<path fill="#62008A" d="M-1570.852,110.357c0.952-0.551,1.728-1.903,1.726-3.003l-0.04-15.114
					c-0.003-1.1-0.785-2.449-1.738-2.998L-1584,81.7c-0.953-0.549-2.512-0.547-3.464,0.005l-13.053,7.566
					c-0.952,0.552-1.729,1.903-1.725,3.003l0.039,15.113c0.004,1.1,0.786,2.449,1.739,2.998l13.096,7.544
					c0.953,0.549,2.512,0.547,3.464-0.005L-1570.852,110.357z"/>
			</g>
			<g>
				<path fill="#62008A" d="M-1584.008,29.842c-0.954-0.548-2.513-0.544-3.465,0.007l-57.958,33.604
					c-0.952,0.551-1.729,1.903-1.728,3.003l0.092,66.942c0.002,1.1,0.783,2.448,1.737,2.996l22.423,12.88
					c0.954,0.548,1.733,0.096,1.732-1.004l-0.047-48.258c-0.001-1.1-0.005-2.9-0.008-4l-0.046-14.631
					c-0.003-1.1,0.772-2.452,1.725-3.003l31.929-18.512c0.952-0.552,2.511-0.553,3.463-0.004l32.05,18.479
					c0.953,0.549,1.735,1.899,1.738,2.999l0.115,36.996c0.003,1.1-0.772,2.451-1.725,3.003l-31.929,18.512
					c-0.952,0.552-2.511,0.554-3.463,0.004l-13.48-7.772c-0.952-0.549-1.733-0.099-1.733,1.001l-0.015,25.683
					c-0.001,1.1,0.776,2.454,1.726,3.009l13.603,7.947c0.949,0.555,2.505,0.558,3.457,0.006l57.958-33.604
					c0.952-0.552,1.729-1.903,1.728-3.003l-0.092-66.943c-0.002-1.1-0.783-2.448-1.737-2.996L-1584.008,29.842z"/>
			</g>
		</g>
	</g>
	<g>
		<path fill="#62008A" d="M-1478.529,60.005c-0.951-0.551-2.51-0.551-3.462,0l-31.927,18.466c-0.952,0.551-1.734,1.901-1.738,3.001
			l-0.123,36.885c-0.004,1.1,0.772,2.451,1.724,3.002l31.794,18.41c0.951,0.551,2.51,0.552,3.462,0.001l31.928-18.468
			c0.952-0.551,1.734-1.901,1.738-3.001l0.122-36.883c0.004-1.1-0.772-2.451-1.724-3.002L-1478.529,60.005z M-1464.058,108.011
			c-0.021,1.1-0.825,2.434-1.789,2.964l-13.449,7.403c-0.964,0.53-2.522,0.499-3.464-0.069l-13.167-7.949
			c-0.941-0.568-1.695-1.934-1.675-3.033l0.285-15.348c0.021-1.1,0.825-2.434,1.789-2.964l13.448-7.403
			c0.964-0.53,2.522-0.499,3.464,0.069l13.168,7.948c0.941,0.569,1.695,1.934,1.675,3.033L-1464.058,108.011z"/>
	</g>
	<g>
		<path fill="#62008A" d="M-1250.301,60.005c-0.951-0.551-2.51-0.551-3.462,0l-31.928,18.466c-0.952,0.551-1.734,1.901-1.738,3.001
			l-0.122,36.885c-0.004,1.1,0.772,2.451,1.724,3.002l31.793,18.409c0.951,0.551,2.51,0.552,3.462,0.001l31.928-18.468
			c0.952-0.551,1.734-1.901,1.738-3.001l0.123-36.883c0.004-1.1-0.772-2.451-1.724-3.002L-1250.301,60.005z M-1235.829,108.011
			c-0.021,1.1-0.825,2.434-1.789,2.964l-13.449,7.403c-0.964,0.53-2.522,0.499-3.464-0.069l-13.168-7.949
			c-0.941-0.568-1.695-1.934-1.675-3.033l0.286-15.348c0.021-1.1,0.825-2.434,1.789-2.964l13.448-7.403
			c0.964-0.53,2.522-0.499,3.464,0.069l13.167,7.948c0.941,0.568,1.695,1.934,1.675,3.033L-1235.829,108.011z"/>
	</g>
	<g>
		<path fill="#62008A" d="M-1155.963,74.19c0.004-1.1-0.765-1.537-1.708-0.97l-15.301,9.187c-0.943,0.566-1.712,1.93-1.708,3.03
			l0.055,15.213c0.004,1.1-0.782,2.432-1.747,2.96l-14.988,8.203c-0.965,0.528-1.688,1.858-1.606,2.955l1.239,16.749
			c0.081,1.097,0.928,1.545,1.881,0.997l32.021-18.443c0.953-0.549,1.736-1.898,1.74-2.998L-1155.963,74.19z"/>
	</g>
	<g>
		<path fill="#62008A" d="M-1190.117,130.969c0.094,1.096-0.695,1.745-1.753,1.442l-16.321-4.672
			c-1.058-0.303-1.923-1.45-1.923-2.55V82.52c0-1.1,0.815-1.619,1.812-1.153l15.377,7.188c0.996,0.466,1.812,1.747,1.812,2.847
			v25.893c0,1.1,0.076,2.897,0.17,3.993L-1190.117,130.969z"/>
	</g>
	<g>
		<path fill="#62008A" d="M-1436.588,28.008c-1.042,0.351-1.896,1.538-1.895,2.638l0.022,46.726c0,1.1-0.003,2.9-0.009,4
			l-0.172,36.934c-0.006,1.1,0.769,2.452,1.72,3.004l31.768,18.431c0.951,0.553,2.509,0.554,3.461,0.003l31.913-18.456
			c0.952-0.55,0.94-1.43-0.026-1.955l-15.444-8.375c-0.967-0.524-2.548-0.523-3.514,0.003l-12.862,7.006
			c-0.966,0.526-2.53,0.499-3.477-0.062l-13.291-7.864c-0.946-0.56-1.721-1.918-1.721-3.019V24.462c0-1.1-0.854-1.713-1.896-1.362
			L-1436.588,28.008z"/>
	</g>
	<g>
		<path fill="#62008A" d="M-1327.516,158.18c-0.952,0.551-1.737,1.901-1.744,3.001l-0.11,17.334c-0.007,1.1,0.765,1.547,1.715,0.992
			l32.428-18.904c0.95-0.555,1.718-1.908,1.706-3.008l-0.435-39.62c-0.012-1.1-0.019-2.9-0.015-4l0.107-32.558
			c0.004-1.1-0.765-1.537-1.708-0.972l-15.734,9.435c-0.943,0.565-1.711,1.928-1.707,3.028l0.059,15.103
			c0.004,1.1-0.78,2.434-1.744,2.964l-13.449,7.403c-0.964,0.53-2.522,0.499-3.464-0.069l-13.167-7.949
			c-0.941-0.568-1.712-1.934-1.713-3.034l-0.004-15.555c0-1.1-0.781-2.447-1.736-2.993l-14.533-8.313
			c-0.955-0.546-1.739-0.093-1.743,1.007l-0.123,36.885c-0.004,1.1,0.772,2.451,1.724,3.002l31.794,18.41
			c0.951,0.551,2.51,0.552,3.462,0.001l12.901-7.463c0.952-0.551,1.735-0.102,1.739,0.999l0.057,14.45
			c0.004,1.1-0.771,2.45-1.724,3.001L-1327.516,158.18z"/>
	</g>
</g>
<g id="Layer_9">
	<g>
		<g>
			<g>
				<path fill="#0047AB" d="M-1758.43,297.967c0.952-0.552,1.729-1.903,1.726-3.003l-0.054-20.321
					c-0.003-1.1-0.785-2.449-1.738-2.998l-17.608-10.142c-0.953-0.549-2.512-0.547-3.464,0.005l-17.552,10.176
					c-0.952,0.552-1.729,1.903-1.726,3.003l0.055,20.321c0.003,1.1,0.784,2.449,1.738,2.998l17.608,10.143
					c0.953,0.549,2.512,0.547,3.464-0.005L-1758.43,297.967z"/>
			</g>
			<g>
				<path fill="#0047AB" d="M-1776.114,195.516c-0.954-0.548-2.513-0.545-3.465,0.007l-74.693,43.309
					c-0.952,0.552-1.729,1.903-1.728,3.003l0.118,86.272c0.002,1.1,0.783,2.448,1.737,2.996l29.478,16.932
					c0.954,0.548,1.733,0.096,1.732-1.004l-0.061-62.496c-0.001-1.1-0.005-2.9-0.008-4l-0.062-19.708
					c-0.003-1.1,0.772-2.451,1.725-3.003l41.572-24.104c0.952-0.552,2.511-0.554,3.463-0.004l41.727,24.06
					c0.952,0.55,1.735,1.899,1.738,2.999l0.148,48.167c0.003,1.1-0.772,2.451-1.725,3.003l-41.57,24.102
					c-0.952,0.552-2.51,0.554-3.463,0.004l-18.098-10.434c-0.953-0.55-1.733-0.099-1.733,1.001l-0.02,33.77
					c0,1.1,0.776,2.454,1.726,3.009l18.249,10.663c0.949,0.555,2.505,0.558,3.457,0.006l74.693-43.307
					c0.952-0.552,1.729-1.903,1.728-3.003l-0.118-86.273c-0.002-1.1-0.783-2.448-1.737-2.996L-1776.114,195.516z"/>
			</g>
		</g>
	</g>
	<g>
		<path fill="#0047AB" d="M-1641.895,233.896c-0.951-0.551-2.51-0.552-3.462-0.001l-41.569,24.045
			c-0.952,0.551-1.734,1.901-1.738,3.001l-0.159,48.024c-0.004,1.1,0.772,2.451,1.724,3.002l41.398,23.972
			c0.951,0.551,2.51,0.552,3.462,0.001l41.571-24.046c0.952-0.551,1.734-1.901,1.738-3.001l0.159-48.023
			c0.004-1.1-0.772-2.451-1.724-3.002L-1641.895,233.896z M-1623.019,295.8c-0.021,1.101-0.825,2.434-1.789,2.965l-18.068,9.944
			c-0.964,0.531-2.522,0.5-3.464-0.068l-17.688-10.679c-0.941-0.568-1.695-1.933-1.675-3.033l0.384-20.618
			c0.021-1.101,0.825-2.434,1.789-2.965l18.067-9.943c0.964-0.531,2.522-0.5,3.464,0.068l17.688,10.677
			c0.941,0.568,1.695,1.933,1.675,3.033L-1623.019,295.8z"/>
	</g>
	<g>
		<path fill="#0047AB" d="M-1351.479,233.896c-0.951-0.551-2.51-0.552-3.462-0.001l-41.57,24.045
			c-0.952,0.551-1.734,1.901-1.738,3.001l-0.159,48.024c-0.004,1.1,0.772,2.451,1.724,3.002l41.399,23.972
			c0.951,0.551,2.51,0.552,3.462,0.001l41.571-24.046c0.952-0.551,1.734-1.901,1.738-3.001l0.159-48.023
			c0.004-1.1-0.772-2.451-1.724-3.002L-1351.479,233.896z M-1332.604,295.8c-0.021,1.101-0.825,2.434-1.789,2.965l-18.068,9.944
			c-0.964,0.531-2.522,0.5-3.464-0.068l-17.688-10.679c-0.941-0.568-1.695-1.933-1.675-3.033l0.383-20.618
			c0.021-1.101,0.825-2.434,1.789-2.965l18.067-9.943c0.964-0.531,2.522-0.5,3.464,0.068l17.688,10.677
			c0.941,0.568,1.695,1.933,1.675,3.033L-1332.604,295.8z"/>
	</g>
	<g>
		<path fill="#0047AB" d="M-1275.438,326.709c0.503-0.011,1.695-0.469,2.648-1.018l39.928-22.996
			c0.953-0.549,1.736-1.898,1.74-2.998l0.159-48.022c0.004-1.1-0.765-1.537-1.708-0.971l-20.405,12.252
			c-0.943,0.566-1.712,1.93-1.708,3.029l0.073,20.449c0.004,1.1-0.783,2.432-1.749,2.958l-17.898,9.771
			c-0.966,0.526-1.756,0.058-1.756-1.042v-31.546c0-1.1-0.814-2.384-1.81-2.853l-20.381-9.598c-0.995-0.468-1.81,0.049-1.81,1.148
			v62.386c0,1.1,0.862,2.257,1.917,2.57l19.926,5.928C-1277.217,326.472-1275.942,326.72-1275.438,326.709z"/>
	</g>
	<g>
		<path fill="#0047AB" d="M-1588.58,193.663c-1.043,0.35-1.896,1.536-1.896,2.636l0.034,60.532c0.001,1.1-0.003,2.9-0.009,4
			l-0.221,48.079c-0.006,1.1,0.769,2.451,1.721,3.004l41.365,23.996c0.952,0.553,2.51,0.554,3.462,0.003l41.554-24.034
			c0.952-0.551,0.94-1.43-0.026-1.954l-20.611-11.179c-0.967-0.524-2.548-0.522-3.515,0.003l-17.332,9.438
			c-0.967,0.525-2.531,0.498-3.479-0.063l-17.86-10.563c-0.947-0.561-1.722-1.919-1.722-3.019V188.462
			c0-1.1-0.854-1.714-1.896-1.364L-1588.58,193.663z"/>
	</g>
	<g>
		<path fill="#0047AB" d="M-1449.733,359.366c-0.952,0.551-1.737,1.901-1.744,3.001l-0.147,23.147
			c-0.007,1.1,0.765,1.547,1.715,0.992l42.205-24.605c0.95-0.554,1.718-1.907,1.706-3.007l-0.564-51.506
			c-0.012-1.1-0.019-2.9-0.015-4l0.141-42.52c0.004-1.1-0.765-1.537-1.708-0.972l-20.956,12.566
			c-0.943,0.565-1.712,1.929-1.707,3.028l0.078,20.308c0.005,1.1-0.78,2.434-1.744,2.965l-18.068,9.944
			c-0.964,0.531-2.522,0.5-3.464-0.068l-17.688-10.679c-0.941-0.568-1.712-1.934-1.712-3.033l-0.005-20.884
			c0-1.1-0.781-2.447-1.736-2.993l-19.44-11.118c-0.955-0.546-1.739-0.093-1.743,1.007l-0.159,48.024
			c-0.004,1.1,0.772,2.451,1.724,3.002l41.399,23.972c0.951,0.551,2.51,0.552,3.462,0.001l17.361-10.042
			c0.952-0.551,1.735-0.101,1.739,0.999l0.075,19.478c0.005,1.1-0.771,2.45-1.724,3.001L-1449.733,359.366z"/>
	</g>
</g>
<g id="Layer_11">
	<g>
		<g>
			<g>
				<path fill="#0047AB" d="M138.242,156.225c0.952-0.552,1.729-1.903,1.726-3.003l-0.079-30.282
					c-0.003-1.1-0.785-2.449-1.738-2.998l-26.24-15.113c-0.953-0.549-2.512-0.547-3.464,0.005l-26.158,15.165
					c-0.952,0.552-1.729,1.903-1.725,3.003l0.08,30.283c0.002,1.1,0.785,2.449,1.738,2.998l26.239,15.114
					c0.953,0.549,2.512,0.547,3.464-0.005L138.242,156.225z"/>
			</g>
			<g>
				<path fill="#0047AB" d="M111.896,11.816c-0.954-0.548-2.513-0.544-3.465,0.007L1.728,73.69C0.775,74.242-0.002,75.593,0,76.693
					l0.169,123.245c0.002,1.1,0.783,2.448,1.737,2.996l42.972,24.683c0.954,0.548,1.733,0.096,1.732-1.004l-0.087-89.73
					c-0.001-1.1-0.005-2.9-0.008-4l-0.092-29.418c-0.003-1.1,0.772-2.452,1.725-3.003l60.017-34.797
					c0.952-0.552,2.51-0.553,3.463-0.004l60.235,34.732c0.952,0.549,1.735,1.899,1.738,2.999l0.214,69.533
					c0.003,1.1-0.772,2.451-1.725,3.003l-60.014,34.794c-0.952,0.552-2.51,0.554-3.463,0.004L81.686,195.2
					c-0.952-0.55-1.733-0.099-1.733,1.001l-0.028,49.239c-0.001,1.1,0.776,2.454,1.726,3.009l27.138,15.856
					c0.949,0.555,2.505,0.558,3.457,0.006l106.702-61.865c0.952-0.552,1.729-1.903,1.728-3.003l-0.168-123.247
					c-0.002-1.1-0.783-2.448-1.737-2.996L111.896,11.816z"/>
			</g>
		</g>
	</g>
	<g>
		<path fill="#0047AB" d="M301.089,65.913c-0.951-0.551-2.51-0.551-3.462,0l-60.013,34.712c-0.952,0.551-1.734,1.901-1.738,3.001
			l-0.229,69.332c-0.004,1.1,0.772,2.451,1.724,3.002l59.771,34.61c0.952,0.551,2.51,0.552,3.462,0.001l60.017-34.714
			c0.952-0.551,1.734-1.901,1.738-3.001l0.229-69.331c0.004-1.1-0.771-2.451-1.724-3.002L301.089,65.913z M328.39,154.4
			c-0.021,1.101-0.826,2.434-1.789,2.965l-26.904,14.808c-0.963,0.531-2.522,0.5-3.464-0.068l-26.334-15.898
			c-0.941-0.568-1.695-1.933-1.675-3.033l0.572-30.702c0.021-1.1,0.826-2.434,1.789-2.964l26.902-14.808
			c0.963-0.53,2.522-0.499,3.464,0.069l26.334,15.896c0.941,0.568,1.695,1.934,1.675,3.033L328.39,154.4z"/>
	</g>
	<g>
		<path fill="#0047AB" d="M710.449,65.913c-0.952-0.551-2.51-0.551-3.462,0l-60.015,34.712c-0.952,0.551-1.734,1.901-1.738,3.001
			l-0.23,69.332c-0.004,1.1,0.772,2.451,1.724,3.002l59.773,34.61c0.951,0.551,2.51,0.552,3.462,0.001l60.016-34.714
			c0.952-0.551,1.734-1.901,1.738-3.001l0.23-69.331c0.004-1.1-0.772-2.451-1.724-3.002L710.449,65.913z M737.749,154.4
			c-0.021,1.101-0.826,2.434-1.789,2.965l-26.902,14.808c-0.963,0.531-2.522,0.5-3.464-0.068l-26.334-15.898
			c-0.941-0.568-1.695-1.933-1.675-3.033l0.569-30.702c0.021-1.1,0.825-2.434,1.789-2.964l26.902-14.808
			c0.964-0.53,2.522-0.5,3.464,0.069l26.335,15.896c0.941,0.569,1.695,1.934,1.675,3.033L737.749,154.4z"/>
	</g>
	<g>
		<path fill="#0047AB" d="M818.343,197.149c0.709-0.015,2.07-0.477,3.023-1.025l57.7-33.231c0.953-0.549,1.736-1.898,1.74-2.998
			l0.23-69.33c0.004-1.1-0.765-1.537-1.708-0.971l-30.167,18.113c-0.943,0.566-1.712,1.929-1.708,3.029l0.108,30.463
			c0.004,1.1-0.783,2.432-1.749,2.958l-26.42,14.559c-0.965,0.526-1.508,0.058-1.508-1.042v-46.104c0-1.1-1.063-2.383-2.057-2.852
			l-30.172-14.227c-0.995-0.469-1.771,0.048-1.771,1.148v89.575c0,1.1,0.7,2.257,1.755,2.57l29.575,8.823
			C816.271,196.921,817.633,197.165,818.343,197.149z"/>
	</g>
	<g>
		<path fill="#0047AB" d="M376.171,9.873c-1.043,0.35-1.896,1.536-1.896,2.636l0.05,86.962c0,1.1-0.003,2.9-0.008,4l-0.32,69.409
			c-0.006,1.1,0.769,2.451,1.721,3.004l59.725,34.646c0.952,0.553,2.51,0.554,3.462,0.003l59.991-34.697
			c0.952-0.551,0.94-1.43-0.026-1.954l-30.493-16.538c-0.967-0.524-2.548-0.522-3.514,0.003l-25.871,14.088
			c-0.966,0.525-2.53,0.498-3.478-0.063l-26.746-15.725c-0.947-0.561-1.882-1.919-1.882-3.019V1.462c0-1.1-0.693-1.714-1.736-1.364
			L376.171,9.873z"/>
	</g>
	<g>
		<path fill="#0047AB" d="M571.953,243.593c-0.952,0.551-1.737,1.901-1.744,3.001l-0.219,34.266c-0.007,1.1,0.765,1.547,1.715,0.993
			l60.906-35.508c0.95-0.555,1.718-1.908,1.706-3.008l-0.813-74.239c-0.012-1.1-0.019-2.9-0.015-4l0.203-61.573
			c0.004-1.1-0.765-1.537-1.708-0.972l-30.943,18.555c-0.943,0.565-1.711,1.928-1.707,3.028l0.116,30.264
			c0.004,1.1-0.78,2.434-1.744,2.965l-26.903,14.808c-0.963,0.531-2.522,0.5-3.464-0.068l-26.336-15.898
			c-0.941-0.568-1.712-1.934-1.712-3.033l-0.006-31.076c0-1.1-0.781-2.447-1.736-2.993l-28.826-16.486
			c-0.955-0.546-1.739-0.093-1.743,1.007l-0.229,69.332c-0.004,1.1,0.771,2.451,1.724,3.002l59.772,34.61
			c0.951,0.551,2.51,0.552,3.462,0.001l25.891-14.975c0.952-0.551,1.735-0.101,1.739,0.999l0.112,29.094
			c0.004,1.1-0.771,2.45-1.724,3.001L571.953,243.593z"/>
	</g>
</g>
<g id="Layer_1">
	<g>
		<polygon fill="#0047AB" points="-2795.066,133.344 -2795.15,101.604 -2822.653,85.764 -2850.075,101.66 -2849.991,133.399 
			-2822.488,149.242 		"/>
		<polygon fill="#0047AB" points="-2822.667,-0.349 -2924.661,58.787 -2924.499,176.596 -2881.502,201.292 -2881.587,114.512 
			-2881.682,83.572 -2822.914,49.5 -2763.936,83.505 -2763.728,151.584 -2822.496,185.655 -2850.635,169.431 -2850.664,218.722 
			-2822.34,235.271 -2720.346,176.137 -2720.508,58.327 		"/>
	</g>
</g>
<g id="Layer_2">
	<path fill="#0047AB" d="M-2647.5,49.73l-58.771,33.992l-0.225,67.894l58.544,33.899l58.771-33.994l0.226-67.892L-2647.5,49.73z
		 M-2620.658,134.435l-28.151,15.496l-27.552-16.633l0.598-32.128l28.151-15.496l27.552,16.631L-2620.658,134.435z"/>
	<path fill="#0047AB" d="M-2268.5,49.73l-58.771,33.992l-0.225,67.894l58.544,33.899l58.771-33.994l0.226-67.892L-2268.5,49.73z
		 M-2241.658,134.435l-28.151,15.496l-27.552-16.633l0.598-32.128l28.151-15.496l27.552,16.631L-2241.658,134.435z"/>
</g>
<g id="Layer_5">
	<polygon fill="#0047AB" points="-2108.956,75.629 -2140.061,94.306 -2139.947,126.212 -2168.809,141.931 -2168.114,177.462 
		-2109.182,143.521 	"/>
	<polygon fill="#0047AB" points="-2168.114,177.462 -2197.114,166.962 -2197.114,80.628 -2168.114,94.628 	"/>
</g>
<g id="Layer_3">
	<polyline fill="#0047AB" points="-2578.373,-0.474 -2578.209,83.659 -2578.465,151.584 -2519.937,185.499 -2461.174,151.513 
		-2492.654,134.431 -2520.085,149.24 -2548.114,132.795 -2548.114,-10.538 	"/>
</g>
<g id="Layer_4">
	<polygon fill="#0047AB" points="-2396.726,216.087 -2396.952,251.515 -2337.364,216.774 -2338.158,144.338 -2338.158,144.338 
		-2337.956,83.629 -2369.781,102.712 -2369.658,134.435 -2397.809,149.931 -2425.361,133.298 -2425.369,100.824 -2455.271,83.722 
		-2455.496,151.615 -2396.952,185.515 -2369.776,169.796 -2369.658,200.435 	"/>
</g>
<g id="Layer_6" display="none">
	<path display="inline" fill="none" stroke="#000000" stroke-miterlimit="10" d="M-2143.809,149.931"/>
	<path display="inline" fill="none" stroke="#000000" stroke-miterlimit="10" d="M-2171.319,100.852"/>
	<path display="inline" fill="none" stroke="#000000" stroke-miterlimit="10" d="M-2115.614,102.587"/>
	<path display="inline" fill="none" stroke="#000000" stroke-miterlimit="10" d="M-2143.809,149.931"/>
	<polygon display="inline" fill="#0047AB" points="-2199.183,83.094 -2168.229,101.368 -2169.099,133.49 -2141.684,150.254 
		-2113.401,134.896 -2112.533,102.772 -2139.948,86.009 -2140.331,49.73 -2081.875,84.26 -2082.27,152.151 -2141.12,185.515 
		-2199.579,150.985 	"/>
</g>
</svg>
