<?xml version="1.0" encoding="utf-8"?>
<!-- Generator: Adobe Illustrator 16.0.0, SVG Export Plug-In . SVG Version: 6.00 Build 0)  -->
<!DOCTYPE svg PUBLIC "-//W3C//DTD SVG 1.1//EN" "http://www.w3.org/Graphics/SVG/1.1/DTD/svg11.dtd">
<svg version="1.1" xmlns="http://www.w3.org/2000/svg" xmlns:xlink="http://www.w3.org/1999/xlink" x="0px" y="0px"
	 width="242.665px" height="279.265px" viewBox="0 0 242.665 279.265" enable-background="new 0 0 242.665 279.265"
	 xml:space="preserve">
<g id="Layer_7">
	<polygon fill="#0047AB" points="-1202.505,-29.839 -1202.558,-49.894 -1219.936,-59.902 -1237.263,-49.858 -1237.209,-29.804 
		-1219.831,-19.793 	"/>
	<polyline fill="#0047AB" points="-1155.396,-77.238 -1219.944,-114.312 -1284.389,-76.947 -1284.286,-2.51 -1257.119,13.094 
		-1257.173,-41.738 -1257.233,-61.287 -1220.1,-82.815 -1182.836,-61.329 -1182.704,-18.314 -1219.836,3.214 -1237.616,-7.038 
		-1237.634,24.106 -1219.737,34.563 -1155.294,-2.8 	"/>
	<polygon fill="#62008A" points="-1061.505,-26.839 -1061.558,-46.894 -1078.936,-56.902 -1096.263,-46.858 -1096.209,-26.804 
		-1078.831,-16.793 	"/>
	<polyline fill="#62008A" points="-1014.396,-74.238 -1078.944,-111.312 -1143.389,-73.947 -1143.286,0.49 -1116.119,16.094 
		-1116.173,-38.738 -1116.233,-58.287 -1079.1,-79.815 -1041.836,-58.329 -1041.704,-15.314 -1078.836,6.214 -1096.616,-4.038 
		-1096.634,27.106 -1078.737,37.563 -1014.294,0.2 	"/>
	<g>
		<path fill="#0047AB" d="M-1207.235,128.164c0.952-0.551,1.729-1.903,1.726-3.003l-0.043-16.055
			c-0.003-1.1-0.785-2.449-1.738-2.998l-13.911-8.012c-0.953-0.549-2.512-0.547-3.464,0.005l-13.866,8.038
			c-0.952,0.552-1.729,1.903-1.725,3.003l0.043,16.054c0.002,1.1,0.785,2.449,1.738,2.999l13.911,8.014
			c0.953,0.549,2.512,0.547,3.464-0.005L-1207.235,128.164z"/>
	</g>
	<g>
		<path fill="#0047AB" d="M-1158.297,154.2c0.002,1.1-0.775,2.451-1.728,3.003l-60.982,35.357c-0.952,0.552-2.508,0.549-3.457-0.006
			l-14.443-8.438c-0.949-0.555-1.727-1.909-1.726-3.009l0.016-27.145c0.001-1.1,0.78-1.551,1.733-1.001l14.315,8.254
			c0.952,0.55,2.511,0.548,3.463-0.004l33.671-19.522c0.952-0.552,1.728-1.903,1.725-3.003l-0.12-39.015
			c-0.003-1.1-0.786-2.45-1.738-2.999l-33.799-19.488c-0.952-0.549-2.511-0.548-3.463,0.004l-33.673,19.523
			c-0.952,0.552-1.728,1.903-1.725,3.003l0.049,15.549c0.003,1.1,0.007,2.9,0.008,4l0.05,50.831c0.001,1.1-0.778,1.552-1.732,1.004
			l-23.698-13.611c-0.954-0.548-1.735-1.896-1.737-2.996l-0.097-70.437c-0.002-1.1,0.775-2.452,1.728-3.003l60.983-35.358
			c0.952-0.552,2.511-0.555,3.465-0.007l61.079,35.082c0.954,0.548,1.735,1.896,1.737,2.996L-1158.297,154.2z"/>
	</g>
	<g>
		<path fill="#62008A" d="M-1063.235,130.164c0.952-0.551,1.729-1.903,1.726-3.003l-0.043-16.055
			c-0.003-1.1-0.785-2.449-1.738-2.998l-13.911-8.012c-0.953-0.549-2.512-0.547-3.464,0.005l-13.866,8.038
			c-0.952,0.552-1.729,1.903-1.725,3.003l0.043,16.054c0.002,1.1,0.785,2.449,1.738,2.999l13.911,8.014
			c0.953,0.549,2.512,0.547,3.464-0.005L-1063.235,130.164z"/>
	</g>
	<g>
		<path fill="#62008A" d="M-1014.297,154.2c0.002,1.1-0.775,2.451-1.728,3.003l-60.982,35.357c-0.952,0.552-2.508,0.549-3.457-0.006
			l-14.443-8.438c-0.949-0.555-1.727-1.909-1.726-3.009l0.016-27.145c0.001-1.1,0.78-1.551,1.733-1.001l14.315,8.254
			c0.952,0.55,2.511,0.548,3.463-0.004l33.671-19.522c0.952-0.552,1.728-1.903,1.725-3.003l-0.12-39.015
			c-0.003-1.1-0.786-2.45-1.738-2.999l-33.799-19.488c-0.952-0.549-2.511-0.548-3.463,0.004l-33.673,19.523
			c-0.952,0.552-1.728,1.903-1.725,3.003l0.049,15.549c0.003,1.1,0.007,2.9,0.008,4l0.05,50.831c0.001,1.1-0.778,1.552-1.732,1.004
			l-23.698-13.611c-0.954-0.548-1.735-1.896-1.737-2.996l-0.097-70.437c-0.002-1.1,0.775-2.452,1.728-3.003l60.983-35.358
			c0.952-0.552,2.511-0.555,3.465-0.007l61.079,35.082c0.954,0.548,1.735,1.896,1.737,2.996L-1014.297,154.2z"/>
	</g>
</g>
<g id="Layer_10">
	<g>
		<path fill="#0047AB" d="M152.19,155.447c0.952-0.552,1.729-1.903,1.726-3.003l-0.089-33.698c-0.003-1.1-0.785-2.449-1.738-2.998
			l-29.2-16.818c-0.953-0.549-2.512-0.547-3.464,0.005l-29.11,16.874c-0.952,0.552-1.728,1.903-1.726,3.003l0.09,33.699
			c0.004,1.1,0.786,2.449,1.739,2.998l29.2,16.82c0.953,0.549,2.512,0.547,3.464-0.005L152.19,155.447z"/>
	</g>
	<g>
		<path fill="#0047AB" d="M121.528,279.265l-31.915-18.646c-0.949-0.555-1.726-1.909-1.726-3.009l0.03-54.546
			c0-1.1,0.78-1.551,1.733-1.001l29.959,17.273c0.953,0.55,2.511,0.548,3.463-0.004l66.339-38.463
			c0.952-0.552,1.728-1.903,1.725-3.003l-0.235-76.858c-0.003-1.1-0.785-2.45-1.738-2.999l-66.584-38.392
			c-0.953-0.549-2.511-0.548-3.463,0.004L52.773,98.084c-0.952,0.552-1.728,1.903-1.725,3.003l0.103,32.748
			c0.003,1.1,0.007,2.9,0.008,4l0.097,99.07c0.001,1.1-0.778,1.552-1.732,1.004l-47.6-27.339c-0.954-0.548-1.735-1.896-1.737-2.996
			L0,71.65c-0.002-1.1,0.775-2.452,1.728-3.003L119.408,0.416c0.952-0.551,2.511-0.555,3.465-0.007l117.868,67.697
			c0.954,0.548,1.735,1.896,1.737,2.996l0.187,135.928c0.002,1.1-0.775,2.451-1.728,3.003L121.528,279.265"/>
	</g>
</g>
<g id="Layer_8">
	<g>
		<polygon fill="#62008A" points="-886.594,-23.792 -886.644,-42.906 -903.206,-52.444 -919.72,-42.872 -919.669,-23.758 
			-903.106,-14.218 		"/>
		<polygon fill="#62008A" points="-903.215,-104.3 -964.634,-68.689 -964.536,2.253 -938.645,17.125 -938.695,-35.132 
			-938.753,-53.764 -903.363,-74.282 -867.849,-53.804 -867.722,-12.808 -903.111,7.709 -920.057,-2.061 -920.073,27.622 
			-903.018,37.586 -841.599,1.977 -841.696,-68.966 		"/>
	</g>
	<path fill="#62008A" d="M-797.732-74.143l-35.39,20.469l-0.137,40.885l35.255,20.414l35.391-20.471l0.136-40.883L-797.732-74.143z
		 M-781.567-23.135l-16.953,9.332l-16.591-10.016l0.359-19.347l16.952-9.332l16.592,10.015L-781.567-23.135z"/>
	<path fill="#62008A" d="M-569.504-74.143l-35.391,20.469l-0.136,40.885l35.254,20.414l35.391-20.471l0.137-40.883L-569.504-74.143z
		 M-553.339-23.135l-16.953,9.332l-16.592-10.016l0.36-19.347l16.952-9.332l16.591,10.015L-553.339-23.135z"/>
	<polygon fill="#62008A" points="-473.429,-60.956 -492.159,-49.709 -492.091,-30.496 -509.472,-21.03 -509.053,0.367 
		-473.564,-20.073 	"/>
	<polygon fill="#62008A" points="-508.587,0.367 -527.587,-5.957 -527.587,-52.626 -508.587,-43.744 	"/>
	<polygon fill="#62008A" points="-755.956,-104.5 -755.932,-53.773 -756.123,-12.839 -720.896,7.599 -685.521,-12.859 
		-704.48,-23.142 -720.854,-14.221 -737.587,-24.123 -737.587,-110.684 	"/>
	<polygon fill="#62008A" points="-646.72,26.035 -646.855,47.369 -610.973,26.449 -611.45,-17.171 -611.45,-17.171 
		-611.329,-53.729 -630.493,-42.238 -630.419,-23.135 -647.372,-13.804 -663.963,-23.82 -663.968,-43.375 -681.974,-53.674 
		-682.11,-12.789 -646.855,7.625 -630.491,-1.841 -630.419,16.609 	"/>
	<g>
		<g>
			<g>
				<path fill="#62008A" d="M-885.324,129.211c0.952-0.551,1.728-1.903,1.726-3.003l-0.04-15.114
					c-0.003-1.1-0.785-2.449-1.738-2.998l-13.096-7.542c-0.953-0.549-2.512-0.547-3.464,0.005l-13.053,7.566
					c-0.952,0.552-1.729,1.903-1.725,3.003l0.039,15.113c0.004,1.1,0.786,2.449,1.739,2.998l13.096,7.544
					c0.953,0.549,2.512,0.547,3.464-0.005L-885.324,129.211z"/>
			</g>
			<g>
				<path fill="#62008A" d="M-898.48,48.696c-0.954-0.548-2.513-0.544-3.465,0.007l-57.958,33.604
					c-0.952,0.551-1.729,1.903-1.728,3.003l0.092,66.942c0.002,1.1,0.783,2.448,1.737,2.996l22.423,12.88
					c0.954,0.548,1.733,0.096,1.732-1.004l-0.047-48.258c-0.001-1.1-0.005-2.9-0.008-4l-0.046-14.631
					c-0.003-1.1,0.772-2.452,1.725-3.003l31.929-18.512c0.952-0.552,2.511-0.553,3.463-0.004l32.05,18.479
					c0.953,0.549,1.735,1.899,1.738,2.999l0.115,36.996c0.003,1.1-0.772,2.451-1.725,3.003l-31.929,18.512
					c-0.952,0.552-2.511,0.554-3.463,0.004l-13.48-7.772c-0.952-0.549-1.733-0.099-1.733,1.001l-0.015,25.683
					c-0.001,1.1,0.776,2.454,1.726,3.009l13.603,7.947c0.949,0.555,2.505,0.558,3.457,0.006l57.958-33.604
					c0.952-0.552,1.729-1.903,1.728-3.003l-0.092-66.943c-0.002-1.1-0.783-2.448-1.737-2.996L-898.48,48.696z"/>
			</g>
		</g>
	</g>
	<g>
		<path fill="#62008A" d="M-793.002,78.859c-0.951-0.551-2.51-0.551-3.462,0l-31.927,18.466c-0.952,0.551-1.734,1.901-1.738,3.001
			l-0.123,36.885c-0.004,1.1,0.772,2.451,1.724,3.002l31.794,18.41c0.951,0.551,2.51,0.552,3.462,0.001l31.928-18.468
			c0.952-0.551,1.734-1.901,1.738-3.001l0.122-36.883c0.004-1.1-0.772-2.451-1.724-3.002L-793.002,78.859z M-778.53,126.865
			c-0.021,1.1-0.825,2.434-1.789,2.964l-13.449,7.403c-0.964,0.53-2.522,0.499-3.464-0.069l-13.167-7.949
			c-0.941-0.568-1.695-1.934-1.675-3.033l0.285-15.348c0.021-1.1,0.825-2.434,1.789-2.964l13.448-7.403
			c0.964-0.53,2.522-0.499,3.464,0.069l13.168,7.948c0.941,0.569,1.695,1.934,1.675,3.033L-778.53,126.865z"/>
	</g>
	<g>
		<path fill="#62008A" d="M-564.773,78.859c-0.951-0.551-2.51-0.551-3.462,0l-31.928,18.466c-0.952,0.551-1.734,1.901-1.738,3.001
			l-0.122,36.885c-0.004,1.1,0.772,2.451,1.724,3.002l31.793,18.409c0.951,0.551,2.51,0.552,3.462,0.001l31.928-18.468
			c0.952-0.551,1.734-1.901,1.738-3.001l0.123-36.883c0.004-1.1-0.772-2.451-1.724-3.002L-564.773,78.859z M-550.302,126.865
			c-0.021,1.1-0.825,2.434-1.789,2.964l-13.449,7.403c-0.964,0.53-2.522,0.499-3.464-0.069l-13.168-7.949
			c-0.941-0.568-1.695-1.934-1.675-3.033l0.286-15.348c0.021-1.1,0.825-2.434,1.789-2.964l13.448-7.403
			c0.964-0.53,2.522-0.499,3.464,0.069l13.167,7.948c0.941,0.568,1.695,1.934,1.675,3.033L-550.302,126.865z"/>
	</g>
	<g>
		<path fill="#62008A" d="M-470.436,93.044c0.004-1.1-0.765-1.537-1.708-0.97l-15.301,9.187c-0.943,0.566-1.712,1.93-1.708,3.03
			l0.055,15.213c0.004,1.1-0.782,2.432-1.747,2.96l-14.988,8.203c-0.965,0.528-1.688,1.858-1.606,2.955l1.239,16.749
			c0.081,1.097,0.928,1.545,1.881,0.997l32.021-18.443c0.953-0.549,1.736-1.898,1.74-2.998L-470.436,93.044z"/>
	</g>
	<g>
		<path fill="#62008A" d="M-504.59,149.823c0.094,1.096-0.695,1.745-1.753,1.442l-16.321-4.672c-1.058-0.303-1.923-1.45-1.923-2.55
			v-42.669c0-1.1,0.815-1.619,1.812-1.153l15.377,7.188c0.996,0.466,1.812,1.747,1.812,2.847v25.893c0,1.1,0.076,2.897,0.17,3.993
			L-504.59,149.823z"/>
	</g>
	<g>
		<path fill="#62008A" d="M-751.061,46.862c-1.042,0.351-1.896,1.538-1.895,2.638l0.022,46.726c0,1.1-0.003,2.9-0.009,4
			l-0.172,36.934c-0.006,1.1,0.769,2.452,1.72,3.004l31.768,18.431c0.951,0.553,2.509,0.554,3.461,0.003l31.913-18.456
			c0.952-0.55,0.94-1.43-0.026-1.955l-15.444-8.375c-0.967-0.524-2.548-0.523-3.514,0.003l-12.862,7.006
			c-0.966,0.526-2.53,0.499-3.477-0.062l-13.291-7.864c-0.946-0.56-1.721-1.918-1.721-3.019V43.316c0-1.1-0.854-1.713-1.896-1.362
			L-751.061,46.862z"/>
	</g>
	<g>
		<path fill="#62008A" d="M-641.988,177.034c-0.952,0.551-1.737,1.901-1.744,3.001l-0.11,17.334c-0.007,1.1,0.765,1.547,1.715,0.992
			l32.428-18.904c0.95-0.555,1.718-1.908,1.706-3.008l-0.435-39.62c-0.012-1.1-0.019-2.9-0.015-4l0.107-32.558
			c0.004-1.1-0.765-1.537-1.708-0.972l-15.734,9.435c-0.943,0.565-1.711,1.928-1.707,3.028l0.059,15.103
			c0.004,1.1-0.78,2.434-1.744,2.964l-13.449,7.403c-0.964,0.53-2.522,0.499-3.464-0.069l-13.167-7.949
			c-0.941-0.568-1.712-1.934-1.713-3.034l-0.004-15.555c0-1.1-0.781-2.447-1.736-2.993l-14.533-8.313
			c-0.955-0.546-1.739-0.093-1.743,1.007l-0.123,36.885c-0.004,1.1,0.772,2.451,1.724,3.002l31.794,18.41
			c0.951,0.551,2.51,0.552,3.462,0.001l12.901-7.463c0.952-0.551,1.735-0.102,1.739,0.999l0.057,14.45
			c0.004,1.1-0.771,2.45-1.724,3.001L-641.988,177.034z"/>
	</g>
</g>
<g id="Layer_9">
	<g>
		<g>
			<g>
				<path fill="#0047AB" d="M-1072.902,316.821c0.952-0.552,1.729-1.903,1.726-3.003l-0.054-20.321
					c-0.003-1.1-0.785-2.449-1.738-2.998l-17.608-10.142c-0.953-0.549-2.512-0.547-3.464,0.005l-17.552,10.176
					c-0.952,0.552-1.729,1.903-1.726,3.003l0.055,20.321c0.003,1.1,0.784,2.449,1.738,2.998l17.608,10.143
					c0.953,0.549,2.512,0.547,3.464-0.005L-1072.902,316.821z"/>
			</g>
			<g>
				<path fill="#0047AB" d="M-1090.587,214.37c-0.954-0.548-2.513-0.545-3.465,0.007l-74.693,43.309
					c-0.952,0.552-1.729,1.903-1.728,3.003l0.118,86.272c0.002,1.1,0.783,2.448,1.737,2.996l29.478,16.932
					c0.954,0.548,1.733,0.096,1.732-1.004l-0.061-62.496c-0.001-1.1-0.005-2.9-0.008-4l-0.062-19.708
					c-0.003-1.1,0.772-2.451,1.725-3.003l41.572-24.104c0.952-0.552,2.511-0.554,3.463-0.004l41.727,24.06
					c0.952,0.55,1.735,1.899,1.738,2.999l0.148,48.167c0.003,1.1-0.772,2.451-1.725,3.003l-41.57,24.102
					c-0.952,0.552-2.51,0.554-3.463,0.004l-18.098-10.434c-0.953-0.55-1.733-0.099-1.733,1.001l-0.02,33.77
					c0,1.1,0.776,2.454,1.726,3.009l18.249,10.663c0.949,0.555,2.505,0.558,3.457,0.006l74.693-43.307
					c0.952-0.552,1.729-1.903,1.728-3.003l-0.118-86.273c-0.002-1.1-0.783-2.448-1.737-2.996L-1090.587,214.37z"/>
			</g>
		</g>
	</g>
	<g>
		<path fill="#0047AB" d="M-956.367,252.75c-0.951-0.551-2.51-0.552-3.462-0.001l-41.569,24.045
			c-0.952,0.551-1.734,1.901-1.738,3.001l-0.159,48.024c-0.004,1.1,0.772,2.451,1.724,3.002l41.398,23.972
			c0.951,0.551,2.51,0.552,3.462,0.001l41.571-24.046c0.952-0.551,1.734-1.901,1.738-3.001l0.159-48.023
			c0.004-1.1-0.772-2.451-1.724-3.002L-956.367,252.75z M-937.491,314.654c-0.021,1.101-0.825,2.434-1.789,2.965l-18.068,9.944
			c-0.964,0.531-2.522,0.5-3.464-0.068l-17.688-10.679c-0.941-0.568-1.695-1.933-1.675-3.033l0.384-20.618
			c0.021-1.101,0.825-2.434,1.789-2.965l18.067-9.943c0.964-0.531,2.522-0.5,3.464,0.068l17.688,10.677
			c0.941,0.568,1.695,1.933,1.675,3.033L-937.491,314.654z"/>
	</g>
	<g>
		<path fill="#0047AB" d="M-665.952,252.75c-0.951-0.551-2.51-0.552-3.462-0.001l-41.57,24.045
			c-0.952,0.551-1.734,1.901-1.738,3.001l-0.159,48.024c-0.004,1.1,0.772,2.451,1.724,3.002l41.399,23.972
			c0.951,0.551,2.51,0.552,3.462,0.001l41.571-24.046c0.952-0.551,1.734-1.901,1.738-3.001l0.159-48.023
			c0.004-1.1-0.772-2.451-1.724-3.002L-665.952,252.75z M-647.076,314.654c-0.021,1.101-0.825,2.434-1.789,2.965l-18.068,9.944
			c-0.964,0.531-2.522,0.5-3.464-0.068l-17.688-10.679c-0.941-0.568-1.695-1.933-1.675-3.033l0.383-20.618
			c0.021-1.101,0.825-2.434,1.789-2.965l18.067-9.943c0.964-0.531,2.522-0.5,3.464,0.068l17.688,10.677
			c0.941,0.568,1.695,1.933,1.675,3.033L-647.076,314.654z"/>
	</g>
	<g>
		<path fill="#0047AB" d="M-589.911,345.563c0.503-0.011,1.695-0.469,2.648-1.018l39.928-22.996c0.953-0.549,1.736-1.898,1.74-2.998
			l0.159-48.022c0.004-1.1-0.765-1.537-1.708-0.971l-20.405,12.252c-0.943,0.566-1.712,1.93-1.708,3.029l0.073,20.449
			c0.004,1.1-0.783,2.432-1.749,2.958l-17.898,9.771c-0.966,0.526-1.756,0.058-1.756-1.042V285.43c0-1.1-0.814-2.384-1.81-2.853
			l-20.381-9.598c-0.995-0.468-1.81,0.049-1.81,1.148v62.386c0,1.1,0.862,2.257,1.917,2.57l19.926,5.928
			C-591.689,345.326-590.415,345.574-589.911,345.563z"/>
	</g>
	<g>
		<path fill="#0047AB" d="M-903.053,212.517c-1.043,0.35-1.896,1.536-1.896,2.636l0.034,60.532c0.001,1.1-0.003,2.9-0.009,4
			l-0.221,48.079c-0.006,1.1,0.769,2.451,1.721,3.004l41.365,23.996c0.952,0.553,2.51,0.554,3.462,0.003l41.554-24.034
			c0.952-0.551,0.94-1.43-0.026-1.954L-837.68,317.6c-0.967-0.524-2.548-0.522-3.515,0.003l-17.332,9.438
			c-0.967,0.525-2.531,0.498-3.479-0.063l-17.86-10.563c-0.947-0.561-1.722-1.919-1.722-3.019V207.316
			c0-1.1-0.854-1.714-1.896-1.364L-903.053,212.517z"/>
	</g>
	<g>
		<path fill="#0047AB" d="M-764.206,378.22c-0.952,0.551-1.737,1.901-1.744,3.001l-0.147,23.147c-0.007,1.1,0.765,1.547,1.715,0.992
			l42.205-24.605c0.95-0.554,1.718-1.907,1.706-3.007l-0.564-51.506c-0.012-1.1-0.019-2.9-0.015-4l0.141-42.52
			c0.004-1.1-0.765-1.537-1.708-0.972l-20.956,12.566c-0.943,0.565-1.712,1.929-1.707,3.028l0.078,20.308
			c0.005,1.1-0.78,2.434-1.744,2.965l-18.068,9.944c-0.964,0.531-2.522,0.5-3.464-0.068l-17.688-10.679
			c-0.941-0.568-1.712-1.934-1.712-3.033l-0.005-20.884c0-1.1-0.781-2.447-1.736-2.993l-19.44-11.118
			c-0.955-0.546-1.739-0.093-1.743,1.007l-0.159,48.024c-0.004,1.1,0.772,2.451,1.724,3.002l41.399,23.972
			c0.951,0.551,2.51,0.552,3.462,0.001l17.361-10.042c0.952-0.551,1.735-0.101,1.739,0.999l0.075,19.478
			c0.005,1.1-0.771,2.45-1.724,3.001L-764.206,378.22z"/>
	</g>
</g>
<g id="Layer_11">
	<g>
		<g>
			<g>
				<path fill="#0047AB" d="M823.77,175.079c0.952-0.552,1.729-1.903,1.726-3.003l-0.079-30.282c-0.003-1.1-0.785-2.449-1.738-2.998
					l-26.24-15.113c-0.953-0.549-2.512-0.547-3.464,0.005l-26.158,15.165c-0.952,0.552-1.729,1.903-1.725,3.003l0.08,30.283
					c0.002,1.1,0.785,2.449,1.738,2.998l26.239,15.114c0.953,0.549,2.512,0.547,3.464-0.005L823.77,175.079z"/>
			</g>
			<g>
				<path fill="#0047AB" d="M797.423,30.67c-0.954-0.548-2.513-0.544-3.465,0.007L687.255,92.544
					c-0.952,0.551-1.729,1.903-1.728,3.003l0.169,123.245c0.002,1.1,0.783,2.448,1.737,2.996l42.972,24.683
					c0.954,0.548,1.733,0.096,1.732-1.004l-0.087-89.73c-0.001-1.1-0.005-2.9-0.008-4l-0.092-29.418
					c-0.003-1.1,0.772-2.452,1.725-3.003l60.017-34.797c0.952-0.552,2.51-0.553,3.463-0.004l60.235,34.732
					c0.952,0.549,1.735,1.899,1.738,2.999l0.214,69.533c0.003,1.1-0.772,2.451-1.725,3.003l-60.014,34.794
					c-0.952,0.552-2.51,0.554-3.463,0.004l-26.929-15.525c-0.952-0.55-1.733-0.099-1.733,1.001l-0.028,49.239
					c-0.001,1.1,0.776,2.454,1.726,3.009l27.138,15.856c0.949,0.555,2.505,0.558,3.457,0.006L904.474,221.3
					c0.952-0.552,1.729-1.903,1.728-3.003l-0.168-123.247c-0.002-1.1-0.783-2.448-1.737-2.996L797.423,30.67z"/>
			</g>
		</g>
	</g>
	<g>
		<path fill="#0047AB" d="M986.616,84.767c-0.951-0.551-2.51-0.551-3.462,0l-60.013,34.712c-0.952,0.551-1.734,1.901-1.738,3.001
			l-0.229,69.332c-0.004,1.1,0.772,2.451,1.724,3.002l59.771,34.61c0.952,0.551,2.51,0.552,3.462,0.001l60.017-34.714
			c0.952-0.551,1.734-1.901,1.738-3.001l0.229-69.331c0.004-1.1-0.771-2.451-1.724-3.002L986.616,84.767z M1013.917,173.254
			c-0.021,1.101-0.826,2.434-1.789,2.965l-26.904,14.808c-0.963,0.531-2.522,0.5-3.464-0.068l-26.334-15.898
			c-0.941-0.568-1.695-1.933-1.675-3.033l0.572-30.702c0.021-1.1,0.826-2.434,1.789-2.964l26.902-14.808
			c0.963-0.53,2.522-0.499,3.464,0.069l26.334,15.896c0.941,0.568,1.695,1.934,1.675,3.033L1013.917,173.254z"/>
	</g>
	<g>
		<path fill="#0047AB" d="M1395.977,84.767c-0.952-0.551-2.51-0.551-3.462,0l-60.015,34.712c-0.952,0.551-1.734,1.901-1.738,3.001
			l-0.23,69.332c-0.004,1.1,0.772,2.451,1.724,3.002l59.773,34.61c0.951,0.551,2.51,0.552,3.462,0.001l60.016-34.714
			c0.952-0.551,1.734-1.901,1.738-3.001l0.23-69.331c0.004-1.1-0.772-2.451-1.724-3.002L1395.977,84.767z M1423.276,173.254
			c-0.021,1.101-0.826,2.434-1.789,2.965l-26.902,14.808c-0.963,0.531-2.522,0.5-3.464-0.068l-26.334-15.898
			c-0.941-0.568-1.695-1.933-1.675-3.033l0.569-30.702c0.021-1.1,0.825-2.434,1.789-2.964l26.902-14.808
			c0.964-0.53,2.522-0.5,3.464,0.069l26.335,15.896c0.941,0.569,1.695,1.934,1.675,3.033L1423.276,173.254z"/>
	</g>
	<g>
		<path fill="#0047AB" d="M1503.87,216.003c0.709-0.015,2.07-0.477,3.023-1.025l57.7-33.231c0.953-0.549,1.736-1.898,1.74-2.998
			l0.23-69.33c0.004-1.1-0.765-1.537-1.708-0.971l-30.167,18.113c-0.943,0.566-1.712,1.929-1.708,3.029l0.108,30.463
			c0.004,1.1-0.783,2.432-1.749,2.958l-26.42,14.559c-0.965,0.526-1.508,0.058-1.508-1.042v-46.104c0-1.1-1.063-2.383-2.057-2.852
			l-30.172-14.227c-0.995-0.469-1.771,0.048-1.771,1.148v89.575c0,1.1,0.7,2.257,1.755,2.57l29.575,8.823
			C1501.798,215.775,1503.16,216.019,1503.87,216.003z"/>
	</g>
	<g>
		<path fill="#0047AB" d="M1061.698,28.727c-1.043,0.35-1.896,1.536-1.896,2.636l0.05,86.962c0,1.1-0.003,2.9-0.008,4l-0.32,69.409
			c-0.006,1.1,0.769,2.451,1.721,3.004l59.725,34.646c0.952,0.553,2.51,0.554,3.462,0.003l59.991-34.697
			c0.952-0.551,0.94-1.43-0.026-1.954l-30.493-16.538c-0.967-0.524-2.548-0.522-3.514,0.003l-25.871,14.088
			c-0.966,0.525-2.53,0.498-3.478-0.063l-26.746-15.725c-0.947-0.561-1.882-1.919-1.882-3.019V20.316c0-1.1-0.693-1.714-1.736-1.364
			L1061.698,28.727z"/>
	</g>
	<g>
		<path fill="#0047AB" d="M1257.48,262.447c-0.952,0.551-1.737,1.901-1.744,3.001l-0.219,34.266c-0.007,1.1,0.765,1.547,1.715,0.993
			l60.906-35.508c0.95-0.555,1.718-1.908,1.706-3.008l-0.813-74.239c-0.012-1.1-0.019-2.9-0.015-4l0.203-61.573
			c0.004-1.1-0.765-1.537-1.708-0.972l-30.943,18.555c-0.943,0.565-1.711,1.928-1.707,3.028l0.116,30.264
			c0.004,1.1-0.78,2.434-1.744,2.965l-26.903,14.808c-0.963,0.531-2.522,0.5-3.464-0.068l-26.336-15.898
			c-0.941-0.568-1.712-1.934-1.712-3.033l-0.006-31.076c0-1.1-0.781-2.447-1.736-2.993l-28.826-16.486
			c-0.955-0.546-1.739-0.093-1.743,1.007l-0.229,69.332c-0.004,1.1,0.771,2.451,1.724,3.002l59.772,34.61
			c0.951,0.551,2.51,0.552,3.462,0.001l25.891-14.975c0.952-0.551,1.735-0.101,1.739,0.999l0.112,29.094
			c0.004,1.1-0.771,2.45-1.724,3.001L1257.48,262.447z"/>
	</g>
</g>
<g id="Layer_1">
	<g>
		<polygon fill="#0047AB" points="-2109.539,152.198 -2109.623,120.458 -2137.125,104.618 -2164.547,120.514 -2164.464,152.253 
			-2136.96,168.096 		"/>
		<polygon fill="#0047AB" points="-2137.139,18.505 -2239.134,77.641 -2238.971,195.45 -2195.975,220.146 -2196.06,133.366 
			-2196.155,102.426 -2137.386,68.354 -2078.409,102.359 -2078.2,170.438 -2136.968,204.509 -2165.107,188.285 -2165.136,237.576 
			-2136.813,254.125 -2034.819,194.991 -2034.981,77.181 		"/>
	</g>
</g>
<g id="Layer_2">
	<path fill="#0047AB" d="M-1961.973,68.584l-58.771,33.992l-0.225,67.894l58.544,33.899l58.771-33.994l0.226-67.892
		L-1961.973,68.584z M-1935.13,153.289l-28.151,15.496l-27.552-16.633l0.598-32.128l28.151-15.496l27.552,16.631L-1935.13,153.289z"
		/>
	<path fill="#0047AB" d="M-1582.973,68.584l-58.771,33.992l-0.225,67.894l58.544,33.899l58.771-33.994l0.226-67.892
		L-1582.973,68.584z M-1556.13,153.289l-28.151,15.496l-27.552-16.633l0.598-32.128l28.151-15.496l27.552,16.631L-1556.13,153.289z"
		/>
</g>
<g id="Layer_5">
	<polygon fill="#0047AB" points="-1423.429,94.483 -1454.533,113.16 -1454.42,145.066 -1483.282,160.785 -1482.587,196.316 
		-1423.654,162.375 	"/>
	<polygon fill="#0047AB" points="-1482.587,196.316 -1511.587,185.816 -1511.587,99.482 -1482.587,113.482 	"/>
</g>
<g id="Layer_3">
	<polyline fill="#0047AB" points="-1892.845,18.38 -1892.682,102.513 -1892.938,170.438 -1834.409,204.353 -1775.646,170.367 
		-1807.126,153.285 -1834.558,168.094 -1862.587,151.649 -1862.587,8.316 	"/>
</g>
<g id="Layer_4">
	<polygon fill="#0047AB" points="-1711.199,234.941 -1711.425,270.369 -1651.837,235.628 -1652.63,163.192 -1652.63,163.192 
		-1652.429,102.483 -1684.253,121.566 -1684.13,153.289 -1712.282,168.785 -1739.834,152.152 -1739.841,119.678 -1769.744,102.576 
		-1769.969,170.469 -1711.425,204.369 -1684.249,188.65 -1684.13,219.289 	"/>
</g>
<g id="Layer_6" display="none">
	<path display="inline" fill="none" stroke="#000000" stroke-miterlimit="10" d="M-1458.282,168.785"/>
	<path display="inline" fill="none" stroke="#000000" stroke-miterlimit="10" d="M-1485.792,119.706"/>
	<path display="inline" fill="none" stroke="#000000" stroke-miterlimit="10" d="M-1430.087,121.441"/>
	<path display="inline" fill="none" stroke="#000000" stroke-miterlimit="10" d="M-1458.282,168.785"/>
	<polygon display="inline" fill="#0047AB" points="-1513.655,101.948 -1482.702,120.222 -1483.571,152.344 -1456.156,169.108 
		-1427.874,153.75 -1427.006,121.626 -1454.421,104.863 -1454.804,68.584 -1396.348,103.114 -1396.742,171.005 -1455.593,204.369 
		-1514.052,169.839 	"/>
</g>
</svg>
